<?xml version="1.0" encoding="utf-8"?>
<!-- Generator: Adobe Illustrator 27.7.0, SVG Export Plug-In . SVG Version: 6.00 Build 0)  -->
<svg version="1.1" id="Capa_1" xmlns="http://www.w3.org/2000/svg" xmlns:xlink="http://www.w3.org/1999/xlink" x="0px" y="0px"
	 viewBox="0 0 100 100" style="enable-background:new 0 0 100 100;" xml:space="preserve">
<style type="text/css">
	.st0{fill:#EA4B4B;}
</style>
<g>
	<g>
		<g>
			<g>
				<path class="st0" d="M27.7,8.3c6.5,0,12.7,2.6,17.3,7.2l2.9,2.9l2.1,2.2l2.1-2.2l2.9-2.9c4.6-4.7,10.8-7.2,17.3-7.2
					c3.3,0,6.4,0.6,9.4,1.9c3,1.2,5.6,3,7.9,5.4c4.6,4.7,7.2,10.8,7.2,17.4c0,6.6-2.5,12.8-7.2,17.4L50,90.4l-39.6-40
					c-9.5-9.6-9.5-25.2,0-34.9C15,10.9,21.2,8.3,27.7,8.3 M27.7,5.3c-7.3,0-14.2,2.9-19.4,8.1c-10.7,10.8-10.7,28.3,0,39.1L50,94.7
					l41.7-42.1c5.2-5.2,8-12.2,8-19.5c0-7.4-2.8-14.3-8-19.5c-2.6-2.6-5.6-4.6-8.9-6C79.5,6.1,76,5.4,72.3,5.3c0,0,0,0,0,0
					c-7.3,0-14.2,2.9-19.4,8.1L50,16.4l-2.9-2.9C41.9,8.2,35,5.3,27.7,5.3L27.7,5.3z"/>
			</g>
		</g>
	</g>
</g>
<path class="st0" d="M89.8,33.1c0,4.8-1.8,9.2-5.2,12.6L50,80.7l-34.7-35c-6.9-6.9-6.9-18.2,0-25.2c3.3-3.3,7.7-5.2,12.4-5.2
	s9.1,1.9,12.4,5.2l1,1l3.9,4l-9,9l5,5l18.9-19c3.3-3.3,7.7-5.2,12.4-5.2c0,0,0,0,0,0c4.7,0,9.1,1.8,12.4,5.2
	C88,23.9,89.8,28.3,89.8,33.1z"/>
</svg>
