<?xml version="1.0" standalone="no"?>
<!DOCTYPE svg PUBLIC "-//W3C//DTD SVG 20010904//EN"
 "http://www.w3.org/TR/2001/REC-SVG-20010904/DTD/svg10.dtd">
<svg version="1.0" xmlns="http://www.w3.org/2000/svg"
 width="150.000000pt" height="150.000000pt" viewBox="0 0 150.000000 150.000000"
 preserveAspectRatio="xMidYMid meet">

<g transform="translate(0.000000,150.000000) scale(0.100000,-0.100000)"
fill="#000000" stroke="none">
<path d="M633 1272 c-56 -75 -109 -146 -118 -157 -77 -98 -177 -240 -198 -280
-100 -198 -68 -414 86 -568 107 -107 272 -161 420 -137 200 33 351 169 402
361 27 100 13 229 -37 336 -21 47 -32 63 -93 139 -16 20 -41 53 -54 73 -25 36
-147 199 -177 236 -9 11 -34 46 -57 78 -22 31 -48 57 -56 57 -9 0 -62 -62
-118 -138z m309 -155 c193 -259 216 -295 246 -375 20 -55 22 -211 3 -256 l-11
-29 -106 104 c-58 57 -110 106 -115 108 -6 2 -37 -23 -69 -54 l-58 -58 -94 94
c-52 52 -106 104 -120 117 l-26 23 -145 -146 -146 -145 -7 47 c-14 96 13 205
79 316 27 46 370 506 377 506 3 0 89 -113 192 -252z m-236 -480 l104 -104 -25
-23 c-27 -25 -33 -50 -13 -50 7 0 52 39 100 87 l87 86 101 -102 c91 -91 101
-105 95 -129 -11 -44 -130 -172 -159 -172 -4 0 -19 -9 -34 -20 -46 -34 -146
-53 -245 -47 -79 4 -98 9 -173 47 -95 48 -165 115 -208 201 l-25 51 137 139
c75 76 141 138 146 138 5 1 55 -45 112 -102z"/>
<path d="M785 958 c-32 -19 -44 -40 -45 -81 0 -51 15 -76 57 -93 41 -17 68
-11 106 24 79 74 -23 204 -118 150z m95 -40 c11 -12 20 -31 20 -43 0 -31 -36
-65 -70 -65 -55 0 -83 83 -38 114 31 22 64 20 88 -6z"/>
</g>
</svg>
