<?xml version="1.0" encoding="utf-8"?>
<!-- Generator: Adobe Illustrator 27.7.0, SVG Export Plug-In . SVG Version: 6.00 Build 0)  -->
<svg version="1.1" id="Capa_1" xmlns="http://www.w3.org/2000/svg" xmlns:xlink="http://www.w3.org/1999/xlink" x="0px" y="0px"
	 viewBox="0 0 100 100" style="enable-background:new 0 0 100 100;" xml:space="preserve">
<style type="text/css">
	.st0{fill:#EA4B4B;}
</style>
<g>
	<g>
		<path class="st0" d="M8.3,13.5c5.2-5.2,12.1-8.1,19.4-8.1s14.2,2.9,19.4,8.1l2.9,2.9l2.9-2.9C58,8.2,64.9,5.4,72.3,5.4
			c0,0,0,0,0,0c3.7,0,7.2,0.7,10.5,2.1c3.3,1.4,6.3,3.4,8.9,6c5.2,5.2,8,12.2,8,19.5c0,7.4-2.9,14.3-8,19.5L50,94.7L8.3,52.5
			C-2.4,41.8-2.4,24.2,8.3,13.5z M50,80.6l34.7-35c3.3-3.4,5.2-7.8,5.2-12.6c0-4.8-1.8-9.2-5.2-12.6c-3.3-3.3-7.7-5.2-12.4-5.2
			c0,0,0,0,0,0c-4.7,0-9.1,1.8-12.4,5.2L41,39.5l-7-7l9-9l-2.9-3c-3.3-3.3-7.7-5.2-12.4-5.2s-9.1,1.8-12.4,5.2
			c-6.9,6.9-6.9,18.2,0,25.2L50,80.6z"/>
	</g>
</g>
</svg>
