<?xml version="1.0" encoding="utf-8"?>
<!-- Generator: Adobe Illustrator 27.7.0, SVG Export Plug-In . SVG Version: 6.00 Build 0)  -->
<svg version="1.1" id="Capa_1" xmlns="http://www.w3.org/2000/svg" xmlns:xlink="http://www.w3.org/1999/xlink" x="0px" y="0px"
	 viewBox="0 0 100 100" style="enable-background:new 0 0 100 100;" xml:space="preserve">
<style type="text/css">
	.st0{fill:#EA4B4B;}
</style>
<g>
	<path class="st0" d="M74.4,7.7l0.4,0.7l22.5,39l1.5,2.7l-1.5,2.7L74.4,92.3H25.6L8.6,63L1.2,50l7.5-13L25.2,8.3l0.4-0.6H74.4
		 M30.2,84.3h0.6h38.5h0.6l0.3-0.5l19.2-33.3l0.3-0.5l-0.3-0.5L70.1,16.2l-0.3-0.5h-0.6H30.8h-0.6l-0.3,0.5L10.7,49.5L10.4,50
		l0.3,0.5l19.2,33.3L30.2,84.3 M75,6.7H25l-0.7,1.1L7.8,36.5L0,50l7.8,13.5L25,93.3h50l23.2-40.1L100,50l-1.8-3.2l-22.5-39L75,6.7
		L75,6.7z M30.8,83.3L11.5,50l19.2-33.3h38.5L88.5,50L69.2,83.3H30.8L30.8,83.3z"/>
</g>
<path class="st0" d="M69.2,16.7H30.8L11.5,50l19.2,33.3h38.5L88.5,50L69.2,16.7z M55,75.1H45V64.9h10V75.1z M55,55.1H45V24.9h10
	V55.1z"/>
</svg>
